<svg version="1.1" id="Layer_1" xmlns="http://www.w3.org/2000/svg" xmlns:xlink="http://www.w3.org/1999/xlink" x="0px" y="0px" width="70px" height="70px" viewBox="0 0 70 70" style="enable-background:new 0 0 70 70;" xml:space="preserve" class="image">
    <style type="text/css">
        .gr-st1 {
            fill: #FFFFFF;
        }
    </style>
    <g>
    <path class="gr-st0" style="fill:#BDBDBD" d="M0,43.5v0.9l3.6,1.3l1,1.1l0.2,5.5l4.7,2.9l1.8,5.2l5.3,1.4l3.2,4.5l5.5-0.3l4.4,3.3l5.2-1.9l5.2,1.9l4.4-3.3
		l5.5,0.3l3.2-4.5l5.3-1.4l1.8-5.2l4.7-2.9l0.2-5.5l0.9-1l3.7-1.5v-0.9H0z M51.1,44.4c-3.3,5.4-9.2,9.1-16.1,9.1
		c-6.8,0-12.8-3.6-16.1-9.1H51.1z M35,64c-12.8,0-23.7-8.2-27.7-19.6h0.6c1.4,4,3.8,7.7,6.7,10.7c5.2,5.2,12.4,8.4,20.3,8.4
		c7.9,0,15.1-3.2,20.3-8.4c3-3,5.3-6.6,6.7-10.7h0.6C58.7,55.8,47.8,64,35,64z M0,43V26.4h70V43H0z M0,25.9h70V25h-2.9l0.3-2.9
		l-4.2-3.6l-1-5.4L57.2,11l-2.5-4.9l-5.5-0.6l-3.9-3.9l-5.4,1.1L35,0l-4.9,2.6l-5.4-1.1l-3.9,3.9l-5.5,0.6L12.8,11l-5.1,2.2l-1,5.4
		l-4.2,3.6L2.9,25H0V25.9z M18.9,25C22.2,19.6,28.2,16,35,16c6.8,0,12.8,3.6,16.1,9.1H18.9z M35,5.4c12.8,0,23.7,8.2,27.7,19.6h-0.6
		c-1.4-4-3.8-7.7-6.7-10.7C50.1,9.2,42.9,6,35,6c-7.9,0-15.1,3.2-20.3,8.4c-3,3-5.3,6.6-6.7,10.7H7.3C11.3,13.6,22.2,5.4,35,5.4z
		 M37.7,19.6l-1.3,1.3l0.3,1.8L35,21.9l-1.7,0.9l0.3-1.8l-1.3-1.3l1.8-0.3l0.8-1.7l0.8,1.7L37.7,19.6z M42.9,21.5l-0.9,0.9l0.2,1.3
		L41,23.1l-1.2,0.6l0.2-1.3l-0.9-0.9l1.3-0.2l0.6-1.2l0.6,1.2L42.9,21.5z M30.9,21.6l-0.9,0.9l0.2,1.3L29,23.2l-1.2,0.6l0.2-1.3
		l-0.9-0.9l1.3-0.2l0.6-1.2l0.6,1.2L30.9,21.6z M32.3,49.8l1.3-1.3l-0.3-1.8l1.7,0.9l1.7-0.9l-0.3,1.8l1.3,1.3L35.8,50L35,51.7
		L34.2,50L32.3,49.8z M27.1,47.8l0.9-0.9l-0.2-1.3l1.2,0.6l1.2-0.6l-0.2,1.3l0.9,0.9L29.6,48L29,49.2L28.4,48L27.1,47.8z M39.1,47.8
		l0.9-0.9l-0.2-1.3l1.2,0.6l1.2-0.6l-0.2,1.3l0.9,0.9L41.6,48L41,49.1L40.4,48L39.1,47.8z"></path>
    <g id="_x3C_text_x3E_">
    <g>
    <g>
    <path class="gr-st1" d="M19.7,52.4l-1.1-1.1l0.4-0.4c0.2-0.2,0.4-0.4,0.4-0.5c0-0.1,0-0.2-0.1-0.2c-0.1-0.1-0.1-0.1-0.2-0.1
					c-0.1,0-0.2,0.2-0.4,0.4l-2.1,2c-0.2,0.2-0.3,0.3-0.3,0.4c0,0.1,0,0.2,0.1,0.2c0.1,0.1,0.2,0.1,0.3,0.1c0.1,0,0.2-0.2,0.4-0.4
					l0.5-0.5l-0.2-0.2l0.7-0.6l1.3,1.3L17,55.1l-0.7-0.7l0.2-0.4c-0.2,0.1-0.4,0.1-0.6,0c-0.2,0-0.3-0.2-0.5-0.3
					c-0.2-0.2-0.3-0.4-0.4-0.7c-0.1-0.3-0.1-0.5,0-0.7c0.1-0.2,0.1-0.4,0.3-0.6c0.1-0.2,0.3-0.4,0.6-0.7l1.3-1.3
					c0.4-0.4,0.7-0.7,1-0.8c0.2-0.1,0.5-0.2,0.9-0.1c0.4,0.1,0.7,0.2,1,0.6c0.3,0.3,0.5,0.7,0.6,1c0.1,0.3,0.1,0.6-0.1,0.9
					c-0.1,0.2-0.4,0.5-0.7,0.9L19.7,52.4z"></path>
    <path class="gr-st1" d="M25,53.3l-2.2,3.4c-0.3,0.4-0.4,0.6-0.6,0.8c-0.1,0.1-0.3,0.3-0.5,0.3c-0.2,0.1-0.5,0.1-0.7,0.1
					c-0.3,0-0.5-0.2-0.8-0.3c-0.3-0.2-0.5-0.4-0.7-0.7c-0.2-0.3-0.3-0.5-0.3-0.7c0-0.2,0-0.4,0.1-0.6c0.1-0.2,0.3-0.6,0.7-1.2l2-3
					l1.3,0.9L20.8,56c-0.1,0.2-0.2,0.4-0.2,0.4c0,0.1,0,0.1,0.1,0.2c0.1,0.1,0.2,0.1,0.2,0c0.1-0.1,0.2-0.2,0.3-0.5l2.4-3.8L25,53.3
					z"></path>
    <path class="gr-st1" d="M28.4,54.7l-1.4,6l-1.5-0.6l0.3-1l-0.5-0.2l-0.5,1l-1.5-0.6l2.9-5.4L28.4,54.7z M26.2,58
					c0.2-0.7,0.4-1.5,0.7-2.5c-0.6,1-1,1.8-1.2,2.3L26.2,58z"></path>
    <path class="gr-st1" d="M29.8,55.2l1.1,0.2c0.7,0.1,1.2,0.2,1.5,0.3c0.2,0.1,0.4,0.3,0.6,0.5c0.1,0.3,0.1,0.6,0.1,1.2
					c-0.1,0.5-0.2,0.8-0.3,0.9c-0.1,0.1-0.4,0.2-0.7,0.2c0.3,0.1,0.5,0.3,0.6,0.4c0.1,0.1,0.1,0.3,0.1,0.4c0,0.1,0,0.4-0.1,0.9
					l-0.3,1.6l-1.4-0.2l0.3-2c0.1-0.3,0.1-0.5,0-0.6c0-0.1-0.2-0.1-0.4-0.2l-0.5,2.7l-1.5-0.3L29.8,55.2z M31.2,56.4l-0.2,1.3
					c0.2,0,0.3,0,0.4,0c0.1,0,0.1-0.2,0.2-0.4l0.1-0.3c0-0.2,0-0.3,0-0.4C31.4,56.5,31.3,56.5,31.2,56.4z"></path>
    <path class="gr-st1" d="M36.9,55.7l1.1,6l-1.6,0.1l-0.1-1.1l-0.6,0l-0.1,1.1L34,61.9l0.6-6.1L36.9,55.7z M36.2,59.6
					c-0.1-0.7-0.2-1.5-0.3-2.5c-0.1,1.2-0.2,2-0.2,2.6L36.2,59.6z"></path>
    <path class="gr-st1" d="M41.7,54.7l1.5,5.9l-1.3,0.3l-1.5-2.5l0.7,2.7l-1.3,0.3l-1.5-5.9l1.3-0.3l1.5,2.4L40.5,55L41.7,54.7z"></path>
    <path class="gr-st1" d="M45.5,53l0.5,1.1l-0.8,0.4l2.1,4.4l-1.4,0.7l-2.1-4.4l-0.8,0.4l-0.5-1.1L45.5,53z"></path>
    <path class="gr-st1" d="M46,52.7l2.1-1.5l0.7,1L48,52.7l0.7,0.9l0.8-0.6l0.7,0.9l-0.8,0.6l0.8,1.1l0.9-0.7l0.7,1l-2.2,1.6L46,52.7z
					"></path>
    <path class="gr-st1" d="M48.9,50.6l1.9-1.8l0.9,0.9l-0.7,0.7l0.8,0.8l0.7-0.7l0.8,0.8L52.4,52l0.9,1l0.8-0.8l0.9,0.9l-1.9,1.9
					L48.9,50.6z"></path>
                        </g>
    <g>
    <path class="gr-st1" d="M17.5,14.2l4.2,4.2l-0.9,0.9L18,16.5l2.5,3.2l-0.6,0.6l-3.2-2.4l2.8,2.8l-0.9,0.9l-4.2-4.2l1.3-1.4
					c0.3,0.2,0.6,0.5,1,0.8l1.2,0.9l-1.7-2.2L17.5,14.2z"></path>
    <path class="gr-st1" d="M23.9,14.1c0.3,0.5,0.5,0.9,0.6,1.1c0.1,0.2,0.2,0.5,0.2,0.7c0,0.2-0.1,0.5-0.2,0.7
					c-0.1,0.2-0.4,0.4-0.6,0.6c-0.3,0.2-0.5,0.3-0.8,0.3c-0.3,0-0.5,0-0.7-0.1c-0.2-0.1-0.4-0.2-0.6-0.4c-0.2-0.2-0.4-0.5-0.7-1.1
					L20.5,15c-0.3-0.5-0.5-0.9-0.6-1.1c-0.1-0.2-0.2-0.5-0.2-0.7c0-0.2,0.1-0.5,0.2-0.7c0.1-0.2,0.4-0.4,0.6-0.6
					c0.3-0.2,0.5-0.3,0.8-0.3c0.3,0,0.5,0,0.7,0.1c0.2,0.1,0.4,0.2,0.6,0.4c0.2,0.2,0.4,0.5,0.7,1.1L23.9,14.1z M21.7,13.2
					c-0.1-0.2-0.3-0.4-0.3-0.4s-0.1,0-0.2,0c-0.1,0-0.1,0.1-0.1,0.2c0,0.1,0.1,0.2,0.2,0.5l1.5,2.3c0.2,0.3,0.3,0.5,0.4,0.5
					c0.1,0.1,0.1,0.1,0.2,0c0.1-0.1,0.1-0.1,0.1-0.2c0-0.1-0.1-0.3-0.3-0.6L21.7,13.2z"></path>
    <path class="gr-st1" d="M26.9,9.1l2.1,5.5l-1.2,0.5l-1.7-2.2l1,2.5l-1.1,0.4l-2.1-5.5l1.1-0.4l1.7,2.2l-1-2.5L26.9,9.1z"></path>
    <path class="gr-st1" d="M28.6,8.6L31,8.2l0.2,1.2l-1,0.2l0.2,1.1l0.9-0.2l0.2,1.1l-0.9,0.2L31,13l1.1-0.2l0.2,1.2l-2.5,0.5
					L28.6,8.6z"></path>
    <path class="gr-st1" d="M35.8,7.8l-0.9,3.8l0.1,2.1l-1.4,0l-0.1-2.1L32.4,8l1.4,0c0.3,1.2,0.4,1.9,0.4,2.3c0.1-0.6,0.2-1.4,0.3-2.4
					L35.8,7.8z"></path>
    <path class="gr-st1" d="M39.3,8.2l1.4,0.3c0.5,0.1,0.8,0.2,1,0.3C42,9,42.1,9.2,42.2,9.4c0.1,0.3,0.1,0.6,0,1.1
					c-0.1,0.3-0.2,0.6-0.3,0.7c-0.1,0.1-0.4,0.2-0.7,0.2c0.3,0.2,0.5,0.3,0.6,0.5c0.1,0.2,0.1,0.5,0,0.9l-0.1,0.5
					c-0.1,0.4-0.2,0.7-0.3,0.8c-0.1,0.2-0.3,0.3-0.5,0.3c-0.2,0-0.6,0-1.2-0.2L38,14L39.3,8.2z M40,11.7l-0.4,1.6c0.2,0,0.3,0,0.4,0
					c0.1,0,0.1-0.2,0.2-0.4l0.1-0.5c0.1-0.2,0.1-0.4,0-0.5C40.4,11.8,40.2,11.7,40,11.7z M40.5,9.5l-0.3,1.3c0.1,0,0.1,0,0.1,0
					c0.1,0,0.2,0,0.3,0c0.1-0.1,0.1-0.3,0.2-0.6c0-0.2,0.1-0.3,0-0.4c0-0.1,0-0.1-0.1-0.2C40.8,9.6,40.7,9.5,40.5,9.5z"></path>
    <path class="gr-st1" d="M46.8,10.6l-1.6,5.8l-1.4-0.6l0.4-1l-0.5-0.2l-0.5,0.9l-1.4-0.6l3.1-5.1L46.8,10.6z M44.5,13.8
					c0.2-0.6,0.5-1.4,0.8-2.4c-0.6,1-1,1.7-1.3,2.2L44.5,13.8z"></path>
    <path class="gr-st1" d="M50.2,15.8L49,14.9l0.6-0.8c0.2-0.2,0.3-0.4,0.3-0.5c0-0.1,0-0.1-0.1-0.2c-0.1-0.1-0.2-0.1-0.3,0
					c-0.1,0.1-0.2,0.2-0.4,0.5l-1.6,2.3c-0.2,0.2-0.3,0.4-0.3,0.5c0,0.1,0,0.2,0.1,0.2c0.1,0.1,0.2,0.1,0.3,0
					c0.1-0.1,0.2-0.2,0.4-0.5l0.4-0.6l1.2,0.8l-0.1,0.2c-0.4,0.5-0.6,0.8-0.8,1c-0.2,0.2-0.5,0.2-0.8,0.2c-0.3,0-0.7-0.1-1-0.4
					c-0.4-0.2-0.6-0.5-0.7-0.8C46,16.6,46,16.3,46,16c0.1-0.3,0.3-0.7,0.6-1.2l1-1.4c0.2-0.4,0.4-0.6,0.6-0.8
					c0.1-0.2,0.3-0.3,0.6-0.4c0.2-0.1,0.5-0.1,0.7-0.1c0.3,0,0.5,0.2,0.8,0.3c0.4,0.2,0.6,0.5,0.7,0.8c0.1,0.3,0.2,0.6,0.1,0.9
					c-0.1,0.3-0.3,0.6-0.6,1.1L50.2,15.8z"></path>
    <path class="gr-st1" d="M55.6,17.4l-2.5,1.3l-1.7,2.9l-1.1-1.1l1.4-2.2l-1.8,1.8l-1-1.1l4.3-4.1l1,1.1l-1.7,1.6l2.1-1.1L55.6,17.4z
					"></path>
                        </g>
                    </g>
    <g>
    <path class="gr-st1" d="M12.9,33.9c0.5,0.2,0.9,0.4,1.1,0.8c0.2,0.4,0.4,1.2,0.4,2.6c0,1-0.1,1.8-0.4,2.3c-0.2,0.6-0.6,1-1.2,1.3
				c-0.6,0.3-1.3,0.4-2.2,0.4c-1,0-1.8-0.2-2.4-0.5c-0.6-0.3-1-0.7-1.2-1.2C6.8,39,6.7,38.2,6.7,37v-1h3.3v2c0,0.5,0,0.9,0.1,1
				c0.1,0.1,0.2,0.2,0.4,0.2c0.3,0,0.4-0.1,0.5-0.3c0.1-0.2,0.1-0.7,0.1-1.5v-0.9c0-0.5-0.1-0.8-0.2-1.1c-0.1-0.2-0.3-0.4-0.5-0.4
				c-0.2-0.1-0.6-0.1-1.3-0.1v-1.8c0.8,0,1.3,0,1.4-0.1c0.2-0.1,0.3-0.2,0.4-0.4c0.1-0.2,0.1-0.5,0.1-0.9v-0.7c0-0.4,0-0.7-0.1-0.9
				c-0.1-0.1-0.2-0.2-0.4-0.2c-0.2,0-0.4,0.1-0.5,0.2c-0.1,0.1-0.1,0.5-0.1,0.9v1H6.7v-1.1c0-1.2,0.3-2,0.9-2.4
				c0.6-0.4,1.5-0.6,2.7-0.6c1.6,0,2.6,0.3,3.2,0.9c0.6,0.6,0.8,1.4,0.8,2.4c0,0.7-0.1,1.2-0.3,1.5C13.8,33.3,13.4,33.6,12.9,33.9z"></path>
    <path class="gr-st1" d="M23.9,32.7v4.2c0,1-0.1,1.6-0.2,2.1c-0.1,0.4-0.3,0.8-0.7,1.2c-0.3,0.4-0.7,0.7-1.2,0.8
				c-0.5,0.2-1,0.2-1.6,0.2c-0.8,0-1.4-0.1-1.9-0.3c-0.5-0.2-0.9-0.4-1.2-0.8c-0.3-0.4-0.5-0.8-0.7-1.2c-0.1-0.4-0.2-1.1-0.2-1.9
				v-4.4c0-1.2,0.1-2,0.3-2.6c0.2-0.6,0.6-1,1.2-1.4c0.6-0.3,1.4-0.5,2.2-0.5c0.7,0,1.4,0.1,1.9,0.4c0.6,0.2,1,0.5,1.3,0.9
				c0.3,0.3,0.5,0.7,0.6,1.2C23.9,31,23.9,31.7,23.9,32.7z M20.7,31.6c0-0.7,0-1.1-0.1-1.3c-0.1-0.2-0.2-0.3-0.5-0.3
				c-0.2,0-0.4,0.1-0.5,0.3c-0.1,0.2-0.1,0.6-0.1,1.2v6.1c0,0.7,0,1.2,0.1,1.3c0.1,0.2,0.2,0.2,0.5,0.2c0.2,0,0.4-0.1,0.5-0.3
				c0.1-0.2,0.1-0.6,0.1-1.2V31.6z"></path>
    <path class="gr-st1" d="M29.4,28.4H32c1.6,0,2.8,0.1,3.3,0.2c0.6,0.1,1,0.4,1.3,0.7c0.3,0.3,0.5,0.7,0.6,1.1
				c0.1,0.4,0.1,1.2,0.1,2.4v4.4c0,1.1-0.1,1.9-0.2,2.3c-0.1,0.4-0.3,0.7-0.6,0.9c-0.3,0.2-0.6,0.4-1,0.5c-0.4,0.1-1,0.1-1.8,0.1
				h-4.3V28.4z M32.8,30.6v8.3c0.5,0,0.8-0.1,0.9-0.3c0.1-0.2,0.2-0.7,0.2-1.5v-4.9c0-0.6,0-0.9-0.1-1.1c0-0.2-0.1-0.3-0.3-0.4
				C33.5,30.6,33.2,30.6,32.8,30.6z"></path>
    <path class="gr-st1" d="M45.1,28.4L47.1,41h-3.5l-0.2-2.3h-1.2L42,41h-3.5l1.7-12.6H45.1z M43.3,36.5c-0.2-1.4-0.3-3.2-0.5-5.3
				c-0.3,2.4-0.6,4.2-0.7,5.3H43.3z"></path>
    <path class="gr-st1" d="M54.6,28.4l-2.5,8V41h-3.2v-4.6l-2.4-8h3.1c0.5,2.5,0.8,4.1,0.8,5c0.2-1.3,0.5-3,0.9-5H54.6z"></path>
    <path class="gr-st1" d="M63,32.2h-3.2v-0.9c0-0.4,0-0.7-0.1-0.8c-0.1-0.1-0.2-0.2-0.4-0.2c-0.2,0-0.4,0.1-0.5,0.2
				c-0.1,0.2-0.2,0.4-0.2,0.7c0,0.4,0.1,0.7,0.2,0.9c0.1,0.2,0.4,0.5,1,0.8c1.5,0.9,2.5,1.6,2.9,2.1c0.4,0.6,0.6,1.4,0.6,2.7
				c0,0.9-0.1,1.6-0.3,2c-0.2,0.4-0.6,0.8-1.3,1.1c-0.6,0.3-1.4,0.4-2.2,0.4c-0.9,0-1.7-0.2-2.3-0.5c-0.6-0.3-1.1-0.8-1.3-1.3
				c-0.2-0.5-0.3-1.2-0.3-2.2v-0.8h3.2V38c0,0.5,0,0.8,0.1,0.9c0.1,0.1,0.2,0.2,0.5,0.2c0.2,0,0.4-0.1,0.5-0.3
				c0.1-0.2,0.2-0.4,0.2-0.8c0-0.7-0.1-1.2-0.3-1.5c-0.2-0.2-0.7-0.6-1.6-1.1c-0.8-0.5-1.4-0.9-1.7-1.2c-0.3-0.2-0.5-0.6-0.7-1
				c-0.2-0.4-0.3-1-0.3-1.6c0-1,0.1-1.7,0.4-2.1c0.3-0.4,0.7-0.8,1.2-1c0.6-0.3,1.3-0.4,2.1-0.4c0.9,0,1.6,0.1,2.3,0.4
				c0.6,0.3,1,0.6,1.2,1c0.2,0.4,0.3,1.1,0.3,2.1V32.2z"></path>
                    </g>
                </g>
            </g>
        </svg>